<svg xmlns="http://www.w3.org/2000/svg" viewBox="0 0 512 512" style="height: 512px; width: 512px;"><defs><linearGradient x1="0" x2="1" y1="0" y2="1" id="lorc-rock-gradient-0"><stop offset="0%" stop-color="#4a90e2" stop-opacity="0.73"></stop><stop offset="100%" stop-color="#092c55" stop-opacity="1"></stop></linearGradient><pattern><pattern id="pattern" patternUnits="userSpaceOnUse" width="16" height="16"><path d="M 4,4l8,8M12,4l8,-8 M4,12l-8,8M12,20l8,-8 M-4,4l8,-8" fill="transparent" stroke="#4a90e2" stroke-width="2" stroke-linecap="square" shape-rendering="auto"></path></pattern></pattern></defs><polygon points="256,512,0,256,256,0,512,256" fill="url(#pattern)"></polygon><g class="" transform="translate(-1,0)" style=""><path d="M228.813 23L68.75 72.28 39.5 182.095l47.53-21.22 10.44-4.655 2.5 11.155 8.75 39.125 6.405 28.53-21.75-19.53-15.72-14.125-28.218 32.344 140.657 136 9.656-40.69 7.53-31.874 10.407 31.063 54.72 163.592L432.343 465.5l45.75-202.938-84.563-148.718L228.814 23zm-57.688 49.875l-27.813 39.906-3.25 73.44-27.187-88.94 58.25-24.405zm17.844 93.406l113.124 155.25L407 355.407l-107.375-.844-110.656-128v-60.28zM79.312 330.25l140.125 153.125-5.563-65.875-134.563-87.25z" fill="#fff" fill-opacity="1" stroke="#4a90e2" stroke-opacity="1" stroke-width="5"></path></g></svg>