<svg xmlns="http://www.w3.org/2000/svg" viewBox="0 0 512 512" style="height: 512px; width: 512px;"><defs><linearGradient x1="0" x2="1" y1="0" y2="1" id="delapouite-calculator-gradient-0"><stop offset="0%" stop-color="#4a90e2" stop-opacity="0.73"></stop><stop offset="100%" stop-color="#092c55" stop-opacity="1"></stop></linearGradient><pattern><pattern id="pattern" patternUnits="userSpaceOnUse" width="16" height="16"><path d="M 4,4l8,8M12,4l8,-8 M4,12l-8,8M12,20l8,-8 M-4,4l8,-8" fill="transparent" stroke="#4a90e2" stroke-width="2" stroke-linecap="square" shape-rendering="auto"></path></pattern></pattern></defs><polygon points="256,512,0,256,256,0,512,256" fill="url(#pattern)"></polygon><g class="" transform="translate(-1,0)" style=""><path d="M95 25v462h322V25H95zm193 18h80v18h-80V43zM114 83h284v84H114V83zm22 46v18h88v-18h-88zm-22 54h58v58h-58v-58zm76 0h58v58h-58v-58zm74 0h58v58h-58v-58zm76 0h58v58h-58v-58zm-208 18v22h22v-22h-22zm76 0v22h22v-22h-22zm74 0v22h22v-22h-22zm76 0v22h22v-22h-22zm-244 56h58v58h-58v-58zm76 0h58v58h-58v-58zm74 0h58v58h-58v-58zm76 0h58v58h-58v-58zm-208 18v22h22v-22h-22zm76 0v22h22v-22h-22zm74 0v22h22v-22h-22zm76 0v22h22v-22h-22zm-244 56h58v58h-58v-58zm76 0h58v58h-58v-58zm74 0h58v58h-58v-58zm76 0h58v132h-58V331zm-208 18v22h22v-22h-22zm76 0v22h22v-22h-22zm74 0v22h22v-22h-22zm76 0v96h22v-96h-22zm-244 56h58v58h-58v-58zm76 0h58v58h-58v-58zm74 0h58v58h-58v-58zm-132 18v22h22v-22h-22zm76 0v22h22v-22h-22zm74 0v22h22v-22h-22z" fill="#fff" fill-opacity="1" stroke="#4a90e2" stroke-opacity="1" stroke-width="5"></path></g></svg>