<svg xmlns="http://www.w3.org/2000/svg" viewBox="0 0 512 512" style="height: 512px; width: 512px;"><defs><linearGradient x1="0" x2="1" y1="0" y2="1" id="delapouite-empty-chessboard-gradient-0"><stop offset="0%" stop-color="#4a90e2" stop-opacity="0.73"></stop><stop offset="100%" stop-color="#092c55" stop-opacity="1"></stop></linearGradient><pattern><pattern id="pattern" patternUnits="userSpaceOnUse" width="16" height="16"><path d="M 4,4l8,8M12,4l8,-8 M4,12l-8,8M12,20l8,-8 M-4,4l8,-8" fill="transparent" stroke="#4a90e2" stroke-width="2" stroke-linecap="square" shape-rendering="auto"></path></pattern></pattern></defs><polygon points="256,512,0,256,256,0,512,256" fill="url(#pattern)"></polygon><g class="" transform="translate(-1,0)" style=""><path d="M21 21v58.75h58.75V21H21zm58.75 58.75v58.75h58.75V79.75H79.75zm58.75 0h58.75V21H138.5v58.75zm58.75 0v58.75H256V79.75h-58.75zm58.75 0h58.75V21H256v58.75zm58.75 0v58.75h58.75V79.75h-58.75zm58.75 0h58.75V21H373.5v58.75zm58.75 0v58.75H491V79.75h-58.75zm0 58.75H373.5v58.75h58.75V138.5zm0 58.75V256H491v-58.75h-58.75zm0 58.75H373.5v58.75h58.75V256zm0 58.75v58.75H491v-58.75h-58.75zm0 58.75H373.5v58.75h58.75V373.5zm0 58.75V491H491v-58.75h-58.75zm-58.75 0h-58.75V491h58.75v-58.75zm-58.75 0V373.5H256v58.75h58.75zm-58.75 0h-58.75V491H256v-58.75zm-58.75 0V373.5H138.5v58.75h58.75zm-58.75 0H79.75V491h58.75v-58.75zm-58.75 0V373.5H21v58.75h58.75zm0-58.75h58.75v-58.75H79.75v58.75zm0-58.75V256H21v58.75h58.75zm0-58.75h58.75v-58.75H79.75V256zm0-58.75V138.5H21v58.75h58.75zm58.75 0h58.75V138.5H138.5v58.75zm58.75 0V256H256v-58.75h-58.75zm58.75 0h58.75V138.5H256v58.75zm58.75 0V256h58.75v-58.75h-58.75zm0 58.75H256v58.75h58.75V256zm0 58.75v58.75h58.75v-58.75h-58.75zm-58.75 0h-58.75v58.75H256v-58.75zm-58.75 0V256H138.5v58.75h58.75z" fill="#fff" fill-opacity="1" stroke="#4a90e2" stroke-opacity="1" stroke-width="5"></path></g></svg>