<svg xmlns="http://www.w3.org/2000/svg" viewBox="0 0 512 512" style="height: 512px; width: 512px;"><defs><linearGradient x1="0" x2="1" y1="0" y2="1" id="lorc-omega-gradient-0"><stop offset="0%" stop-color="#4a90e2" stop-opacity="0.73"></stop><stop offset="100%" stop-color="#092c55" stop-opacity="1"></stop></linearGradient><pattern><pattern id="pattern" patternUnits="userSpaceOnUse" width="16" height="16"><path d="M 4,4l8,8M12,4l8,-8 M4,12l-8,8M12,20l8,-8 M-4,4l8,-8" fill="transparent" stroke="#4a90e2" stroke-width="2" stroke-linecap="square" shape-rendering="auto"></path></pattern></pattern></defs><polygon points="256,512,0,256,256,0,512,256" fill="url(#pattern)"></polygon><g class="" transform="translate(-1,0)" style=""><path d="M259.05 73.105C155.53 73.105 71.2 163.14 71.2 274.65c0 42.674 12.272 82.822 33.265 115.45-24.44-13.235-48.45-29.26-72.4-48.92v95.108H206.87c-48-33.257-81.532-82.232-81.532-138.158 0-74.567 59.88-135.015 133.71-135.015 73.832 0 133.712 60.448 133.712 135.015 0 55.926-33.53 104.9-81.53 138.158h174.803V341.18c-24.02 19.865-48.295 36.2-73.052 49.57 21.297-32.77 33.92-73.09 33.92-116.1 0-111.51-84.33-201.545-187.85-201.545z" fill="#fff" fill-opacity="1" stroke="#4a90e2" stroke-opacity="1" stroke-width="5"></path></g></svg>