<svg xmlns="http://www.w3.org/2000/svg" viewBox="0 0 512 512" style="height: 512px; width: 512px;"><defs><linearGradient x1="0" x2="1" y1="0" y2="1" id="delapouite-conway-life-glider-gradient-0"><stop offset="0%" stop-color="#4a90e2" stop-opacity="0.73"></stop><stop offset="100%" stop-color="#092c55" stop-opacity="1"></stop></linearGradient><pattern><pattern id="pattern" patternUnits="userSpaceOnUse" width="16" height="16"><path d="M 4,4l8,8M12,4l8,-8 M4,12l-8,8M12,20l8,-8 M-4,4l8,-8" fill="transparent" stroke="#4a90e2" stroke-width="2" stroke-linecap="square" shape-rendering="auto"></path></pattern></pattern></defs><polygon points="256,512,0,256,256,0,512,256" fill="url(#pattern)"></polygon><g class="" transform="translate(-1,0)" style=""><path d="M19.51 19.51V492.3H492.3V19.51H19.51zm18 18H171.1V171.1H37.51V37.51zm151.59 0h133.6V171.1H189.1V37.51zm151.6 0h133.6V171.1H340.7V37.51zm-84.8 9.94a56.85 56.85 0 0 0-56.8 56.85 56.85 56.85 0 0 0 56.8 56.9 56.85 56.85 0 0 0 56.9-56.9 56.85 56.85 0 0 0-56.9-56.85zM37.51 189.1H171.1v133.6H37.51V189.1zm151.59 0h133.6v133.6H189.1V189.1zm151.6 0h133.6v133.6H340.7V189.1zm66.9 10a56.85 56.85 0 0 0-56.8 56.8 56.85 56.85 0 0 0 56.8 56.9 56.85 56.85 0 0 0 56.8-56.9 56.85 56.85 0 0 0-56.8-56.8zM37.51 340.7H171.1v133.6H37.51V340.7zm151.59 0h133.6v133.6H189.1V340.7zm151.6 0h133.6v133.6H340.7V340.7zm-236.4 10.1a56.85 56.85 0 0 0-56.85 56.8 56.85 56.85 0 0 0 56.85 56.8 56.85 56.85 0 0 0 56.9-56.8 56.85 56.85 0 0 0-56.9-56.8zm151.6 0a56.85 56.85 0 0 0-56.8 56.8 56.85 56.85 0 0 0 56.8 56.8 56.85 56.85 0 0 0 56.9-56.8 56.85 56.85 0 0 0-56.9-56.8zm151.7 0a56.85 56.85 0 0 0-56.8 56.8 56.85 56.85 0 0 0 56.8 56.8 56.85 56.85 0 0 0 56.8-56.8 56.85 56.85 0 0 0-56.8-56.8z" fill="#fff" fill-opacity="1" stroke="#4a90e2" stroke-opacity="1" stroke-width="5"></path></g></svg>