<svg xmlns="http://www.w3.org/2000/svg" viewBox="0 0 512 512" style="height: 512px; width: 512px;"><defs><linearGradient x1="0" x2="1" y1="0" y2="1" id="lorc-moebius-triangle-gradient-0"><stop offset="0%" stop-color="#4a90e2" stop-opacity="0.73"></stop><stop offset="100%" stop-color="#092c55" stop-opacity="1"></stop></linearGradient><pattern><pattern id="pattern" patternUnits="userSpaceOnUse" width="16" height="16"><path d="M 4,4l8,8M12,4l8,-8 M4,12l-8,8M12,20l8,-8 M-4,4l8,-8" fill="transparent" stroke="#4a90e2" stroke-width="2" stroke-linecap="square" shape-rendering="auto"></path></pattern></pattern></defs><polygon points="256,512,0,256,256,0,512,256" fill="url(#pattern)"></polygon><g class="" transform="translate(-1,0)" style=""><path d="M209.094 19.53L150.53 35.22l234.19 234.186 11.436 11.47-15.625 4.187-182.25 48.78L184 387.032l307.78-82.467.408-1.5L209.094 19.53zm-77.75 22.94L25.78 436.31l45.376 45.375 87.375-326.062 4.19-15.656 11.436 11.468 133.688 133.718 52.22-13.97L131.343 42.47zm41.062 133.655L87.53 492.845l381.126-102.126 17.53-65.314L173.22 409.28l-15.657 4.19 4.218-15.658 49.126-183.156-38.5-38.53z" fill="#fff" fill-opacity="1" stroke="#4a90e2" stroke-opacity="1" stroke-width="5"></path></g></svg>