<svg xmlns="http://www.w3.org/2000/svg" viewBox="0 0 512 512" style="height: 512px; width: 512px;"><defs><linearGradient x1="0" x2="1" y1="0" y2="1" id="delapouite-spock-hand-gradient-0"><stop offset="0%" stop-color="#4a90e2" stop-opacity="0.73"></stop><stop offset="100%" stop-color="#092c55" stop-opacity="1"></stop></linearGradient><pattern><pattern id="pattern" patternUnits="userSpaceOnUse" width="16" height="16"><path d="M 4,4l8,8M12,4l8,-8 M4,12l-8,8M12,20l8,-8 M-4,4l8,-8" fill="transparent" stroke="#00b2ce" stroke-width="2" stroke-linecap="square" shape-rendering="auto"></path></pattern></pattern></defs><polygon points="256,512,0,256,256,0,512,256" fill="url(#pattern)"></polygon><g class="" transform="translate(-1,0)" style=""><path d="M232.5 29.58c-10.4-.17-20.2 6.63-19.4 21.22l40 176.3-17.4 4c-12.9-51.9-25.1-109.6-36.8-162.88-4.4-18.3-43.7-16.02-38.3 11.98 16.3 83.5 28.3 166.2 43.2 247.4-10-24.7-38.9-39.5-58.2-53-24.8-17.3-58.3-22.1-76.62 2.3-8.64 9.3 48.42 28.9 77.02 78.5 15.3 44.6 47.2 62.6 77.6 80.9l7.3 59H371l1.2-44.8s17.6-18.6 19.8-31.4c8.4-48.3 3.3-148.1 3.3-148.1 13-45.5 34.2-95.9 47.2-146.7 9.2-36-26.7-46.63-33-30.87L356 241l-16.8-6 55.9-154.18c6-33.18-27.2-39.22-40.7-11.86-24.9 54.94-47.2 147.24-56.9 146.14-8.4-.9-31.1-98.7-43.1-167.32-2.1-11.74-12.2-18.04-21.9-18.2z" fill="#fff" fill-opacity="1" stroke="#0081a1" stroke-opacity="1" stroke-width="5"></path></g></svg>